<svg width="580" height="400" xmlns="http://www.w3.org/2000/svg">
 <!-- Created with SVG Editor - http://github.com/mzalive/SVG Editor/ -->

 <g>
  <title>background</title>
  <rect fill="#fff" id="canvas_background" height="402" width="582" y="-1" x="-1"/>
  <g display="none" overflow="visible" y="0" x="0" height="100%" width="100%" id="canvasGrid">
   <rect fill="url(#gridpattern)" stroke-width="0" y="0" x="0" height="100%" width="100%"/>
  </g>
 </g>
 <g>
  <title>Layer 1</title>
  <g id="svg_7">
   <path fill="#e5e500" id="svg_4" d="m273.333313,250.000031c0,6.904175 -5.595825,12.500031 -12.5,12.500031s-12.500015,-5.595856 -12.500015,-12.500031c0,-6.904175 5.59584,-12.5 12.500015,-12.5s12.5,5.595825 12.5,12.5z"/>
   <path fill="#e5e500" id="svg_5" d="m356.666718,250.000031c0,6.904175 -5.595856,12.500031 -12.5,12.500031s-12.500031,-5.595856 -12.500031,-12.500031c0,-6.904175 5.595856,-12.5 12.500031,-12.5s12.5,5.595825 12.5,12.5z"/>
   <path fill="#e5e500" id="svg_6" d="m356.666718,195.833328l0,-50.000046l-100.000092,0c0,-4.604156 -3.729156,-8.333328 -8.333328,-8.333328l-25.000015,0l0,8.333328l16.666687,0l6.258331,53.654221c-3.8125,3.054169 -6.258331,7.745834 -6.258331,13.012497c0,9.204178 7.462494,16.666687 16.666656,16.666687l100.000092,0l0,-8.333344l-100.000092,0c-4.604156,0 -8.333328,-3.729156 -8.333328,-8.333344c0,-0.02916 0,-0.058319 0,-0.083328l108.33342,-16.583344z"/>
  </g>
 </g>
</svg>